<svg xmlns="http://www.w3.org/2000/svg" xmlns:xlink="http://www.w3.org/1999/xlink" width="243" zoomAndPan="magnify" viewBox="0 0 182.25 135.000003" height="180" preserveAspectRatio="xMidYMid meet" version="1.2"><defs><clipPath id="7d8c174ac4"><path d="M 78 0 L 181.207031 0 L 181.207031 131 L 78 131 Z M 78 0 "/></clipPath><clipPath id="b36fb05981"><path d="M 90.765625 28.050781 L 158.617188 28.050781 L 158.617188 76.246094 L 90.765625 76.246094 Z M 90.765625 28.050781 "/></clipPath><clipPath id="f69f93688b"><path d="M 90.765625 46.472656 C 96.734375 53.636719 100.765625 62.480469 102.085938 72.183594 C 105.214844 59.640625 116.523438 50.363281 130.007812 50.363281 C 140.628906 50.363281 149.925781 56.132812 154.894531 64.726562 C 156.078125 66.75 157.007812 68.949219 157.652344 71.246094 C 158.121094 72.871094 158.453125 74.542969 158.625 76.257812 L 158.625 36.835938 C 158.304688 36.605469 157.984375 36.390625 157.652344 36.175781 C 156.753906 35.597656 155.835938 35.054688 154.894531 34.539062 C 147.535156 30.402344 139.042969 28.046875 130.007812 28.046875 C 114.242188 28.046875 100.140625 35.210938 90.777344 46.46875 "/></clipPath><linearGradient x1="242.605625" gradientTransform="matrix(10.119725,0,0,10.135676,-2364.336849,1636.967452)" y1="-156.360001" x2="249.310715" gradientUnits="userSpaceOnUse" y2="-156.360001" id="21e2fa7deb"><stop style="stop-color:#40a3bc;stop-opacity:1;" offset="0"/><stop style="stop-color:#40a3bc;stop-opacity:1;" offset="0.03125"/><stop style="stop-color:#40a3bc;stop-opacity:1;" offset="0.046875"/><stop style="stop-color:#41a3bc;stop-opacity:1;" offset="0.0507812"/><stop style="stop-color:#41a4bc;stop-opacity:1;" offset="0.0546875"/><stop style="stop-color:#42a5bd;stop-opacity:1;" offset="0.0585937"/><stop style="stop-color:#42a5bd;stop-opacity:1;" offset="0.0625"/><stop style="stop-color:#43a6bd;stop-opacity:1;" offset="0.0664062"/><stop style="stop-color:#43a6be;stop-opacity:1;" offset="0.0703125"/><stop style="stop-color:#44a7be;stop-opacity:1;" offset="0.0742188"/><stop style="stop-color:#44a7be;stop-opacity:1;" offset="0.078125"/><stop style="stop-color:#45a8be;stop-opacity:1;" offset="0.0820312"/><stop style="stop-color:#45a8bf;stop-opacity:1;" offset="0.0859375"/><stop style="stop-color:#46a8bf;stop-opacity:1;" offset="0.0898438"/><stop style="stop-color:#46a9bf;stop-opacity:1;" offset="0.09375"/><stop style="stop-color:#47a9c0;stop-opacity:1;" offset="0.0976563"/><stop style="stop-color:#47aac0;stop-opacity:1;" offset="0.101562"/><stop style="stop-color:#48aac0;stop-opacity:1;" offset="0.105469"/><stop style="stop-color:#48abc1;stop-opacity:1;" offset="0.109375"/><stop style="stop-color:#49abc1;stop-opacity:1;" offset="0.113281"/><stop style="stop-color:#49abc1;stop-opacity:1;" offset="0.117188"/><stop style="stop-color:#4aacc1;stop-opacity:1;" offset="0.121094"/><stop style="stop-color:#4aacc2;stop-opacity:1;" offset="0.125"/><stop style="stop-color:#4badc2;stop-opacity:1;" offset="0.128906"/><stop style="stop-color:#4badc2;stop-opacity:1;" offset="0.132812"/><stop style="stop-color:#4caec3;stop-opacity:1;" offset="0.136719"/><stop style="stop-color:#4caec3;stop-opacity:1;" offset="0.140625"/><stop style="stop-color:#4daec3;stop-opacity:1;" offset="0.144531"/><stop style="stop-color:#4dafc4;stop-opacity:1;" offset="0.148438"/><stop style="stop-color:#4eafc4;stop-opacity:1;" offset="0.152344"/><stop style="stop-color:#4eb0c4;stop-opacity:1;" offset="0.15625"/><stop style="stop-color:#4fb0c5;stop-opacity:1;" offset="0.160156"/><stop style="stop-color:#4fb1c5;stop-opacity:1;" offset="0.164063"/><stop style="stop-color:#50b1c5;stop-opacity:1;" offset="0.167969"/><stop style="stop-color:#50b1c5;stop-opacity:1;" offset="0.171875"/><stop style="stop-color:#51b2c6;stop-opacity:1;" offset="0.175781"/><stop style="stop-color:#51b2c6;stop-opacity:1;" offset="0.179688"/><stop style="stop-color:#52b3c6;stop-opacity:1;" offset="0.183594"/><stop style="stop-color:#52b3c7;stop-opacity:1;" offset="0.1875"/><stop style="stop-color:#53b3c7;stop-opacity:1;" offset="0.191406"/><stop style="stop-color:#53b4c7;stop-opacity:1;" offset="0.195313"/><stop style="stop-color:#54b4c8;stop-opacity:1;" offset="0.199219"/><stop style="stop-color:#54b5c8;stop-opacity:1;" offset="0.203125"/><stop style="stop-color:#55b5c8;stop-opacity:1;" offset="0.207031"/><stop style="stop-color:#55b6c9;stop-opacity:1;" offset="0.210938"/><stop style="stop-color:#56b6c9;stop-opacity:1;" offset="0.21875"/><stop style="stop-color:#56b7c9;stop-opacity:1;" offset="0.226563"/><stop style="stop-color:#57b7ca;stop-opacity:1;" offset="0.234375"/><stop style="stop-color:#58b8ca;stop-opacity:1;" offset="0.242188"/><stop style="stop-color:#58b8ca;stop-opacity:1;" offset="0.25"/><stop style="stop-color:#59b9cb;stop-opacity:1;" offset="0.257812"/><stop style="stop-color:#59b9cb;stop-opacity:1;" offset="0.265625"/><stop style="stop-color:#5abacb;stop-opacity:1;" offset="0.273438"/><stop style="stop-color:#5abacb;stop-opacity:1;" offset="0.28125"/><stop style="stop-color:#5bbbcc;stop-opacity:1;" offset="0.289062"/><stop style="stop-color:#5cbbcc;stop-opacity:1;" offset="0.296875"/><stop style="stop-color:#5cbccc;stop-opacity:1;" offset="0.304688"/><stop style="stop-color:#5dbccd;stop-opacity:1;" offset="0.3125"/><stop style="stop-color:#5dbdcd;stop-opacity:1;" offset="0.320312"/><stop style="stop-color:#5ebdcd;stop-opacity:1;" offset="0.328125"/><stop style="stop-color:#5fbece;stop-opacity:1;" offset="0.335938"/><stop style="stop-color:#5fbece;stop-opacity:1;" offset="0.34375"/><stop style="stop-color:#60bfce;stop-opacity:1;" offset="0.351562"/><stop style="stop-color:#60bfcf;stop-opacity:1;" offset="0.359375"/><stop style="stop-color:#61c0cf;stop-opacity:1;" offset="0.375"/><stop style="stop-color:#62c0d0;stop-opacity:1;" offset="0.40625"/><stop style="stop-color:#62c1d0;stop-opacity:1;" offset="0.4375"/><stop style="stop-color:#63c2d1;stop-opacity:1;" offset="0.46875"/><stop style="stop-color:#64c2d1;stop-opacity:1;" offset="0.5"/><stop style="stop-color:#64c2d1;stop-opacity:1;" offset="0.625"/><stop style="stop-color:#64c2d1;stop-opacity:1;" offset="0.6875"/><stop style="stop-color:#63c2d1;stop-opacity:1;" offset="0.75"/><stop style="stop-color:#63c1d0;stop-opacity:1;" offset="0.78125"/><stop style="stop-color:#63c1d0;stop-opacity:1;" offset="0.789062"/><stop style="stop-color:#62c0d0;stop-opacity:1;" offset="0.796875"/><stop style="stop-color:#62c0cf;stop-opacity:1;" offset="0.804687"/><stop style="stop-color:#61bfcf;stop-opacity:1;" offset="0.8125"/><stop style="stop-color:#60bfcf;stop-opacity:1;" offset="0.820312"/><stop style="stop-color:#60bece;stop-opacity:1;" offset="0.828125"/><stop style="stop-color:#5fbece;stop-opacity:1;" offset="0.835937"/><stop style="stop-color:#5fbdce;stop-opacity:1;" offset="0.84375"/><stop style="stop-color:#5ebdcd;stop-opacity:1;" offset="0.851562"/><stop style="stop-color:#5ebccd;stop-opacity:1;" offset="0.859375"/><stop style="stop-color:#5dbccd;stop-opacity:1;" offset="0.867187"/><stop style="stop-color:#5dbbcc;stop-opacity:1;" offset="0.875"/><stop style="stop-color:#5cbbcc;stop-opacity:1;" offset="0.882812"/><stop style="stop-color:#5bbacb;stop-opacity:1;" offset="0.886719"/><stop style="stop-color:#5ab9cb;stop-opacity:1;" offset="0.890625"/><stop style="stop-color:#59b8ca;stop-opacity:1;" offset="0.894531"/><stop style="stop-color:#58b8ca;stop-opacity:1;" offset="0.898438"/><stop style="stop-color:#58b7c9;stop-opacity:1;" offset="0.902344"/><stop style="stop-color:#57b7c9;stop-opacity:1;" offset="0.90625"/><stop style="stop-color:#56b6c8;stop-opacity:1;" offset="0.910156"/><stop style="stop-color:#55b5c8;stop-opacity:1;" offset="0.914062"/><stop style="stop-color:#54b5c8;stop-opacity:1;" offset="0.917969"/><stop style="stop-color:#54b4c7;stop-opacity:1;" offset="0.921875"/><stop style="stop-color:#53b3c7;stop-opacity:1;" offset="0.925781"/><stop style="stop-color:#52b3c6;stop-opacity:1;" offset="0.929687"/><stop style="stop-color:#51b2c6;stop-opacity:1;" offset="0.933594"/><stop style="stop-color:#50b1c5;stop-opacity:1;" offset="0.9375"/><stop style="stop-color:#4fb0c5;stop-opacity:1;" offset="0.941406"/><stop style="stop-color:#4eb0c4;stop-opacity:1;" offset="0.945312"/><stop style="stop-color:#4dafc4;stop-opacity:1;" offset="0.949219"/><stop style="stop-color:#4caec3;stop-opacity:1;" offset="0.953125"/><stop style="stop-color:#4badc2;stop-opacity:1;" offset="0.957031"/><stop style="stop-color:#4aacc2;stop-opacity:1;" offset="0.960937"/><stop style="stop-color:#49abc1;stop-opacity:1;" offset="0.964844"/><stop style="stop-color:#48aac1;stop-opacity:1;" offset="0.96875"/><stop style="stop-color:#47a9c0;stop-opacity:1;" offset="0.972656"/><stop style="stop-color:#46a8bf;stop-opacity:1;" offset="0.976562"/><stop style="stop-color:#45a7bf;stop-opacity:1;" offset="0.980469"/><stop style="stop-color:#44a6be;stop-opacity:1;" offset="0.984375"/><stop style="stop-color:#43a5be;stop-opacity:1;" offset="0.988281"/><stop style="stop-color:#42a5bd;stop-opacity:1;" offset="0.992187"/><stop style="stop-color:#41a4bc;stop-opacity:1;" offset="0.996094"/><stop style="stop-color:#40a3bc;stop-opacity:1;" offset="1"/></linearGradient><clipPath id="3702069f36"><path d="M 22.566406 67.105469 L 80.089844 67.105469 L 80.089844 89.410156 L 22.566406 89.410156 Z M 22.566406 67.105469 "/></clipPath><clipPath id="6a134beb62"><path d="M 25.210938 67.105469 C 23.503906 70.777344 22.566406 74.863281 22.566406 79.175781 C 22.566406 82.78125 23.230469 86.238281 24.445312 89.421875 L 78.21875 89.421875 C 79.433594 86.246094 80.082031 82.78125 80.082031 79.175781 C 80.082031 74.863281 79.140625 70.78125 77.449219 67.105469 Z M 25.210938 67.105469 "/></clipPath><linearGradient x1="232.384413" gradientTransform="matrix(8.657131,0,0,8.670778,-1989.214127,1359.633104)" y1="-147.779999" x2="239.028051" gradientUnits="userSpaceOnUse" y2="-147.779999" id="dad4b8a1ef"><stop style="stop-color:#40a3bc;stop-opacity:1;" offset="0"/><stop style="stop-color:#40a3bc;stop-opacity:1;" offset="0.03125"/><stop style="stop-color:#41a4bd;stop-opacity:1;" offset="0.046875"/><stop style="stop-color:#42a5bd;stop-opacity:1;" offset="0.0625"/><stop style="stop-color:#42a5bd;stop-opacity:1;" offset="0.078125"/><stop style="stop-color:#43a6be;stop-opacity:1;" offset="0.09375"/><stop style="stop-color:#44a6be;stop-opacity:1;" offset="0.109375"/><stop style="stop-color:#44a7be;stop-opacity:1;" offset="0.125"/><stop style="stop-color:#45a7bf;stop-opacity:1;" offset="0.140625"/><stop style="stop-color:#45a8bf;stop-opacity:1;" offset="0.15625"/><stop style="stop-color:#46a8bf;stop-opacity:1;" offset="0.171875"/><stop style="stop-color:#46a9c0;stop-opacity:1;" offset="0.1875"/><stop style="stop-color:#47a9c0;stop-opacity:1;" offset="0.203125"/><stop style="stop-color:#48aac0;stop-opacity:1;" offset="0.21875"/><stop style="stop-color:#48aac1;stop-opacity:1;" offset="0.234375"/><stop style="stop-color:#49abc1;stop-opacity:1;" offset="0.25"/><stop style="stop-color:#49abc2;stop-opacity:1;" offset="0.265625"/><stop style="stop-color:#4aacc2;stop-opacity:1;" offset="0.28125"/><stop style="stop-color:#4aacc2;stop-opacity:1;" offset="0.296875"/><stop style="stop-color:#4badc3;stop-opacity:1;" offset="0.3125"/><stop style="stop-color:#4cadc3;stop-opacity:1;" offset="0.328125"/><stop style="stop-color:#4caec3;stop-opacity:1;" offset="0.34375"/><stop style="stop-color:#4daec4;stop-opacity:1;" offset="0.359375"/><stop style="stop-color:#4dafc4;stop-opacity:1;" offset="0.375"/><stop style="stop-color:#4eafc4;stop-opacity:1;" offset="0.390625"/><stop style="stop-color:#4fb0c5;stop-opacity:1;" offset="0.40625"/><stop style="stop-color:#4fb0c5;stop-opacity:1;" offset="0.421875"/><stop style="stop-color:#50b1c5;stop-opacity:1;" offset="0.4375"/><stop style="stop-color:#50b1c6;stop-opacity:1;" offset="0.453125"/><stop style="stop-color:#51b2c6;stop-opacity:1;" offset="0.46875"/><stop style="stop-color:#51b2c6;stop-opacity:1;" offset="0.484375"/><stop style="stop-color:#52b3c7;stop-opacity:1;" offset="0.5"/><stop style="stop-color:#53b3c7;stop-opacity:1;" offset="0.515625"/><stop style="stop-color:#53b4c7;stop-opacity:1;" offset="0.53125"/><stop style="stop-color:#54b4c8;stop-opacity:1;" offset="0.546875"/><stop style="stop-color:#54b5c8;stop-opacity:1;" offset="0.5625"/><stop style="stop-color:#55b5c8;stop-opacity:1;" offset="0.578125"/><stop style="stop-color:#55b6c9;stop-opacity:1;" offset="0.59375"/><stop style="stop-color:#56b6c9;stop-opacity:1;" offset="0.609375"/><stop style="stop-color:#57b7c9;stop-opacity:1;" offset="0.625"/><stop style="stop-color:#57b7ca;stop-opacity:1;" offset="0.640625"/><stop style="stop-color:#58b8ca;stop-opacity:1;" offset="0.65625"/><stop style="stop-color:#58b8cb;stop-opacity:1;" offset="0.671875"/><stop style="stop-color:#59b9cb;stop-opacity:1;" offset="0.6875"/><stop style="stop-color:#59b9cb;stop-opacity:1;" offset="0.703125"/><stop style="stop-color:#5abacc;stop-opacity:1;" offset="0.71875"/><stop style="stop-color:#5bbacc;stop-opacity:1;" offset="0.734375"/><stop style="stop-color:#5bbbcc;stop-opacity:1;" offset="0.75"/><stop style="stop-color:#5cbbcd;stop-opacity:1;" offset="0.765625"/><stop style="stop-color:#5cbccd;stop-opacity:1;" offset="0.78125"/><stop style="stop-color:#5dbccd;stop-opacity:1;" offset="0.796875"/><stop style="stop-color:#5ebdce;stop-opacity:1;" offset="0.8125"/><stop style="stop-color:#5ebdce;stop-opacity:1;" offset="0.828125"/><stop style="stop-color:#5fbece;stop-opacity:1;" offset="0.84375"/><stop style="stop-color:#5fbecf;stop-opacity:1;" offset="0.859375"/><stop style="stop-color:#60bfcf;stop-opacity:1;" offset="0.875"/><stop style="stop-color:#60bfcf;stop-opacity:1;" offset="0.890625"/><stop style="stop-color:#61c0d0;stop-opacity:1;" offset="0.90625"/><stop style="stop-color:#62c0d0;stop-opacity:1;" offset="0.921875"/><stop style="stop-color:#62c1d0;stop-opacity:1;" offset="0.9375"/><stop style="stop-color:#63c1d1;stop-opacity:1;" offset="0.953125"/><stop style="stop-color:#63c2d1;stop-opacity:1;" offset="0.96875"/><stop style="stop-color:#64c2d1;stop-opacity:1;" offset="0.984375"/><stop style="stop-color:#64c3d2;stop-opacity:1;" offset="1"/></linearGradient><clipPath id="ee93ea2ecb"><path d="M 0.296875 28 L 102 28 L 102 131 L 0.296875 131 Z M 0.296875 28 "/></clipPath></defs><g id="4cfcb85977"><g clip-rule="nonzero" clip-path="url(#7d8c174ac4)"><path style=" stroke:none;fill-rule:nonzero;fill:#65c3d2;fill-opacity:1;" d="M 181.03125 0.710938 L 181.03125 79.164062 C 181.03125 80.59375 180.984375 82.011719 180.859375 83.410156 C 178.714844 109.648438 156.753906 130.285156 130 130.285156 C 114.21875 130.285156 100.121094 123.105469 90.769531 111.859375 C 90.734375 111.816406 90.699219 111.777344 90.671875 111.734375 C 84.742188 104.59375 80.742188 95.816406 79.433594 86.148438 C 79.40625 85.972656 79.390625 85.800781 79.367188 85.617188 C 79.089844 83.515625 78.957031 81.363281 78.957031 79.179688 C 78.957031 77 79.082031 74.894531 79.359375 72.804688 L 79.359375 72.742188 C 79.367188 72.566406 79.402344 72.402344 79.421875 72.242188 C 80.722656 62.570312 84.738281 53.773438 90.664062 46.617188 C 90.6875 46.574219 90.730469 46.53125 90.765625 46.492188 C 96.722656 53.65625 100.761719 62.507812 102.074219 72.207031 C 102.027344 72.382812 101.992188 72.554688 101.949219 72.742188 C 101.476562 74.820312 101.230469 76.980469 101.230469 79.191406 C 101.230469 81.40625 101.484375 83.5625 101.949219 85.628906 C 101.992188 85.804688 102.035156 85.976562 102.074219 86.160156 C 105.195312 98.707031 116.511719 107.992188 129.996094 107.992188 C 141.109375 107.992188 150.75 101.6875 155.535156 92.4375 C 156.972656 89.671875 157.980469 86.640625 158.441406 83.433594 C 158.511719 82.984375 158.570312 82.550781 158.617188 82.082031 C 158.707031 81.132812 158.765625 80.152344 158.765625 79.1875 C 158.765625 78.21875 158.707031 77.234375 158.617188 76.273438 L 158.617188 15.484375 C 158.617188 7.339844 164.9375 0.730469 172.746094 0.730469 L 181.03125 0.730469 Z M 181.03125 0.710938 "/></g><g clip-rule="nonzero" clip-path="url(#b36fb05981)"><g clip-rule="nonzero" clip-path="url(#f69f93688b)"><path style=" stroke:none;fill-rule:nonzero;fill:url(#21e2fa7deb);" d="M 90.765625 28.050781 L 90.765625 76.246094 L 158.617188 76.246094 L 158.617188 28.050781 Z M 90.765625 28.050781 "/></g></g><g clip-rule="nonzero" clip-path="url(#3702069f36)"><g clip-rule="nonzero" clip-path="url(#6a134beb62)"><path style=" stroke:none;fill-rule:nonzero;fill:url(#dad4b8a1ef);" d="M 22.566406 67.105469 L 22.566406 89.410156 L 80.082031 89.410156 L 80.082031 67.105469 Z M 22.566406 67.105469 "/></g></g><g clip-rule="nonzero" clip-path="url(#ee93ea2ecb)"><path style=" stroke:none;fill-rule:nonzero;fill:#65c3d2;fill-opacity:1;" d="M 101.949219 72.714844 C 101.933594 72.539062 101.914062 72.367188 101.886719 72.183594 C 100.566406 62.546875 96.574219 53.738281 90.664062 46.597656 C 90.640625 46.550781 90.597656 46.515625 90.5625 46.46875 C 81.207031 35.210938 67.097656 28.046875 51.316406 28.046875 C 23.144531 28.050781 0.296875 50.925781 0.296875 79.167969 C 0.296875 107.410156 23.144531 130.28125 51.324219 130.28125 C 67.101562 130.28125 81.214844 123.109375 90.570312 111.855469 C 90.613281 111.8125 90.640625 111.769531 90.671875 111.730469 C 96.574219 104.589844 100.570312 95.8125 101.890625 86.144531 C 101.914062 85.964844 101.933594 85.792969 101.957031 85.609375 C 101.484375 83.535156 101.234375 81.398438 101.234375 79.175781 C 101.234375 76.949219 101.488281 74.804688 101.957031 72.722656 M 79.335938 85.769531 C 79.3125 85.894531 79.273438 86.011719 79.25 86.136719 C 79.175781 86.417969 79.101562 86.6875 79.015625 86.972656 C 78.933594 87.269531 78.851562 87.554688 78.757812 87.847656 C 78.699219 88.042969 78.632812 88.25 78.566406 88.445312 C 78.460938 88.769531 78.335938 89.101562 78.222656 89.410156 C 74.089844 100.269531 63.605469 107.96875 51.324219 107.96875 C 39.042969 107.96875 28.578125 100.269531 24.445312 89.410156 C 23.230469 86.234375 22.566406 82.769531 22.566406 79.164062 C 22.566406 74.851562 23.511719 70.777344 25.210938 67.105469 C 29.746094 57.214844 39.730469 50.359375 51.3125 50.359375 C 62.894531 50.359375 72.894531 57.214844 77.4375 67.105469 C 77.632812 67.515625 77.804688 67.917969 77.96875 68.34375 C 77.988281 68.394531 78.015625 68.445312 78.035156 68.5 C 78.164062 68.800781 78.269531 69.117188 78.382812 69.4375 C 78.417969 69.542969 78.453125 69.648438 78.492188 69.761719 C 78.769531 70.574219 79.003906 71.386719 79.199219 72.222656 C 79.242188 72.414062 79.289062 72.59375 79.332031 72.789062 C 79.542969 73.726562 79.722656 74.667969 79.847656 75.632812 C 79.882812 75.917969 79.910156 76.214844 79.933594 76.511719 C 79.957031 76.742188 79.984375 76.96875 79.996094 77.199219 C 79.996094 77.3125 80.011719 77.4375 80.019531 77.566406 C 80.042969 78.089844 80.058594 78.636719 80.058594 79.175781 C 80.058594 79.476562 80.058594 79.773438 80.042969 80.078125 C 80.042969 80.3125 80.042969 80.535156 80.019531 80.769531 C 80 81.132812 79.96875 81.492188 79.933594 81.851562 C 79.898438 82.234375 79.863281 82.601562 79.8125 82.972656 C 79.8125 83.082031 79.785156 83.207031 79.769531 83.320312 C 79.722656 83.660156 79.667969 83.984375 79.601562 84.3125 C 79.585938 84.394531 79.578125 84.484375 79.542969 84.566406 C 79.484375 84.917969 79.417969 85.273438 79.335938 85.609375 C 79.335938 85.667969 79.3125 85.714844 79.300781 85.777344 "/></g></g></svg>